<?xml version="1.0" encoding="utf-8"?>
<!-- Generator: Adobe Illustrator 26.0.2, SVG Export Plug-In . SVG Version: 6.00 Build 0)  -->
<svg version="1.1" id="Livello_1" xmlns="http://www.w3.org/2000/svg" xmlns:xlink="http://www.w3.org/1999/xlink" x="0px" y="0px"
	 viewBox="0 0 566.9 286.1" style="enable-background:new 0 0 566.9 286.1;" xml:space="preserve">
<style type="text/css">
	.st0{fill:#7FBB3D;}
	.st1{fill:#E52421;}
	.st2{fill:#9577B4;}
	.st3{fill:none;}
</style>
<g>
	<path class="st0" d="M-5.3,92.9C46,82.8,103.1,88.4,150,112.1c11.8,6.1,23,13.4,33.4,21.8c8.7,7.1,21,18.8,29.5,26.4
		c24.5,22.1,48.4,44.7,74.8,64.5c20.3,15.2,44.8,29.4,70.9,24.6c33.1-5.4,56.5-33.8,88.8-41.6c13.2-3.3,27.1-2.7,40.2,0.6
		c6.5,1.7,12.7,3.7,19.1,5.4c4.4,1.1,9.9,2.4,14.4,3.2l2.4,0.5l2.4,0.3c4.5,0.7,10,1.3,14.6,1.2c2.2,0.1,5.1-0.2,7.3-0.4l2.4-0.4
		l1.2-0.2c1.2-0.3,2.3-0.7,3.5-1.1c2.8-1.2,6-2.9,7.3-5.8l0.5,0.1c-1.9,4.8-7.4,7.1-12.1,8.3l-2.5,0.6c-1.6,0.2-3.4,0.5-5,0.7
		c-2.4,0.1-5.2,0.3-7.5,0.2c-3.8,0-8.6-0.5-12.5-0.9c-3.8-0.6-8.5-1.2-12.3-2.1c-8-1.5-16.3-3.9-24.1-5.7c-19.1-4.4-38.8-1.8-56,7.2
		c-17.7,8.9-32.9,21.8-51.7,29.3c-12.5,5.1-26.5,7.7-40,5.6c-32.5-5-59.6-31.9-83.3-52.9c-24.1-22.1-48.3-45.2-74-65.4
		c-36.8-27.4-82.4-41.2-127.9-44.4c-19.7-1.3-39.4-1.1-59,1.7C-5.2,93.4-5.3,92.9-5.3,92.9L-5.3,92.9z"/>
</g>
<g>
	<path class="st1" d="M-15,159.4c46.3,5.6,93.4,3.2,139.3-4.5c10.4-1.9,21.4-4.1,31.6-6.5l5.2-1.2l5.2-1.4
		c7.3-1.9,16.3-4.5,23.6-6.1c16.9-3.6,35.4-2.4,50.3,6.9c25,15.6,36.8,44.4,50.3,69.4c6.7,12.4,13.5,25.3,24,34.8
		c10.2,9.1,20.7,9.8,33.5,7.3c31-6,48.3-34.3,71.6-53.2c20.5-16.7,40.7-22.4,66.9-20.6c28.9,1.4,58,10.1,81.5,27.4
		c4.3,3.2,8.6,6.7,12.2,10.8l-0.4,0.3c-4.5-4.4-9.6-8.1-14.8-11.5c-9.8-6.1-20.5-11.1-31.4-14.7l-2.5-0.9l-2.6-0.7l-5.2-1.4
		c-2.8-0.8-7.5-1.6-10.4-2.3l-1.3-0.3l-1.3-0.2c-1.5-0.2-6.3-0.9-7.9-1.1c-4-0.6-9.2-0.8-13.3-1.1c-5.9-0.1-12.7-0.3-18.6,0.2
		c-56.3,4.9-68.6,59.1-116.1,72.7c-15.8,3.9-30,4-42.5-7.7c-10.9-10.1-17.3-23.5-23.8-36.5c-11.1-22.2-20.8-46.5-40-63
		c-16.3-14.2-37-16.6-57.5-11.5c-7.2,1.8-16.1,4.8-23.2,6.8c-2.2,0.7-8,2.3-10.4,2.9c-7,1.7-14,3.6-21.1,4.8l-10.7,2.1
		c-3.9,0.7-7,1.1-10.7,1.6c-14.3,2.2-28.7,3.4-43.1,4.2c-28.8,1.2-57.9,0.1-86.3-5.2L-15,159.4L-15,159.4z"/>
</g>
<g>
	<path class="st2" d="M-5.2-0.2C26.4,15.9,56,35.9,83.8,57.9c27.8,22.1,53.4,47,75.5,74.8c8.6,10.7,17.4,22.9,25,34.4
		c5.8,8.9,11.2,18.1,17.2,26.8c9.9,14.5,21.5,28.1,34.2,40.1c28,26.2,68.3,48.6,107.7,44c37-8.6,77.6-49.1,108.4-72.5
		c16.9-12.9,34.3-26.2,54.8-32.7c6.8-2.1,14.1-3.1,21.2-1.9l-0.1,0.5c-7-0.7-14,0.6-20.6,2.9c-6.6,2.3-12.8,5.6-18.8,9.2
		c-36,22.7-64.8,54.4-100,78.6c-13.4,9.1-27.7,17.5-43.8,20.9c-26.8,3.4-54.7-6.5-77.2-20.3c-24.3-15-44.2-36.3-60.9-59.2
		c-2.8-3.8-6.4-9.2-9.1-13.1c-2-3.1-6.5-10.3-8.6-13.4c-9.3-15-20-29.1-31.5-42.5C129.5,102.5,97.9,73.9,64.5,48
		C42.1,30.8,18.9,14.6-5.4,0.2L-5.2-0.2L-5.2-0.2z"/>
</g>
<rect y="-139.4" class="st3" width="566.9" height="566.9"/>
<g>
	<g>
		<path d="M61.8,215.5h5l17,40.4h0.2l17-40.4h5v45.8h-4.1v-37.7h-2.1l4.9-7.1l-18.9,44.8H82L63,216.5l4.9,7.1h-2.1v37.7h-4
			L61.8,215.5L61.8,215.5z"/>
		<path d="M126.5,219.4h-15.1v-3.9h34.6v3.9h-15.1v41.9h-4.3L126.5,219.4L126.5,219.4z"/>
		<path d="M157.6,260.4c-2.5-1-4.4-2.5-5.9-4.4c-1.4-1.9-2.3-4.1-2.5-6.7l0-0.4h4.3l0.1,0.4c0.2,1.8,0.9,3.3,2,4.6s2.6,2.3,4.4,3
			s4,1.1,6.4,1.1c2.4,0,4.5-0.4,6.2-1.1s3.1-1.7,4.1-3.1c1-1.3,1.5-2.9,1.5-4.6v0c0-2.2-0.8-4-2.3-5.4c-1.5-1.3-4.1-2.4-7.6-3.2
			l-5-1.1c-4.4-1-7.7-2.5-9.8-4.5c-2.1-2-3.1-4.6-3.1-7.9v0c0-2.4,0.7-4.6,2-6.4s3.2-3.3,5.5-4.4s5-1.6,8-1.6c3,0,5.6,0.5,7.9,1.6
			c2.3,1.1,4.1,2.6,5.5,4.4s2.2,4.1,2.3,6.6l0,0.4h-4.3l0-0.4c-0.2-1.8-0.9-3.3-1.9-4.6c-1-1.3-2.3-2.3-4-3s-3.6-1.1-5.7-1.1
			c-2.2,0-4.1,0.4-5.8,1.1s-3,1.7-3.9,2.9c-0.9,1.2-1.4,2.7-1.4,4.3v0.1c0,2.1,0.8,3.9,2.3,5.2c1.5,1.3,4,2.4,7.3,3.2l5,1.1
			c4.7,1.1,8,2.6,10.1,4.5s3.1,4.6,3.1,8v0c0,2.6-0.7,4.9-2,6.8c-1.3,1.9-3.2,3.4-5.7,4.5s-5.4,1.6-8.7,1.6
			C162.9,262,160.1,261.5,157.6,260.4z"/>
	</g>
</g>
<g>
	<g>
		<path d="M64.1,280.2c-1-0.5-1.7-1.3-2.2-2.3c-0.5-1-0.8-2.2-0.8-3.5c0-1.3,0.2-2.5,0.6-3.6s1-2.1,1.7-3s1.6-1.5,2.5-2
			s2-0.7,3.2-0.7c1.3,0,2.4,0.3,3.3,0.8c0.9,0.5,1.7,1.3,2.2,2.3c0.5,1,0.8,2.2,0.8,3.5c0,1.3-0.2,2.5-0.6,3.6s-0.9,2.1-1.7,3
			s-1.6,1.5-2.5,2c-1,0.5-2,0.7-3.2,0.7C66.2,281,65.1,280.8,64.1,280.2z M66.5,267c-0.8,0.4-1.5,1-2.1,1.7s-1,1.6-1.3,2.5
			s-0.5,2-0.5,3.1s0.2,2,0.6,2.9c0.4,0.8,1,1.4,1.7,1.9c0.7,0.4,1.6,0.7,2.5,0.7c0.9,0,1.8-0.2,2.6-0.6c0.8-0.4,1.5-1,2.1-1.7
			s1-1.6,1.3-2.5s0.5-2,0.5-3.1c0-1.1-0.2-2.1-0.6-2.9s-1-1.4-1.7-1.9c-0.7-0.4-1.6-0.7-2.6-0.7C68.2,266.4,67.3,266.6,66.5,267z"/>
		<path d="M75.1,284.5l3.2-14.9h1.4l-0.4,2.1h0c0.4-0.7,0.9-1.2,1.6-1.7c0.7-0.4,1.4-0.6,2.2-0.6c0.8,0,1.6,0.2,2.2,0.6
			c0.6,0.4,1.1,1,1.4,1.7s0.5,1.6,0.5,2.5c0,1-0.1,1.9-0.4,2.7s-0.7,1.5-1.2,2.1c-0.5,0.6-1.1,1.1-1.8,1.4s-1.4,0.5-2.2,0.5
			c-0.6,0-1.2-0.1-1.7-0.4c-0.5-0.2-1-0.6-1.3-1c-0.3-0.4-0.6-0.9-0.7-1.5h-0.1l-1.3,6.4L75.1,284.5L75.1,284.5z M83.2,279.3
			c0.5-0.3,0.9-0.6,1.3-1.1c0.4-0.5,0.7-1,0.9-1.7s0.3-1.4,0.3-2.1c0-1.1-0.3-2-0.8-2.7s-1.3-1-2.2-1c-0.6,0-1.2,0.1-1.8,0.5
			c-0.5,0.3-1,0.7-1.4,1.2c-0.4,0.5-0.7,1.1-0.9,1.8s-0.3,1.4-0.3,2.1c0,1,0.3,1.8,0.9,2.5c0.6,0.6,1.3,1,2.3,1
			C82.2,279.7,82.7,279.6,83.2,279.3z"/>
		<path d="M89.7,280.3c-0.5-0.4-0.7-0.9-0.7-1.6c0-0.1,0-0.3,0-0.5s0.1-0.3,0.1-0.5l1.5-7H89l0.2-1.2h1.6l0.6-2.9h1.4l-0.6,2.9h2.4
			l-0.2,1.2H92l-1.4,6.6c0,0.2-0.1,0.4-0.1,0.5s0,0.3,0,0.4c0,0.4,0.1,0.8,0.4,1c0.3,0.2,0.7,0.3,1.1,0.3c0.1,0,0.2,0,0.2,0
			c0.1,0,0.2,0,0.3,0s0.2,0,0.2,0l-0.3,1.2c-0.1,0-0.3,0-0.5,0s-0.3,0-0.5,0C90.8,280.9,90.2,280.7,89.7,280.3z"/>
		<path d="M96.6,269.6h1.4l-2.4,11.2h-1.4L96.6,269.6z M97.4,267c-0.2-0.2-0.3-0.4-0.3-0.7s0.1-0.5,0.3-0.7c0.2-0.2,0.4-0.3,0.7-0.3
			c0.3,0,0.5,0.1,0.7,0.3s0.3,0.4,0.3,0.7s-0.1,0.5-0.3,0.7c-0.2,0.2-0.4,0.3-0.7,0.3C97.8,267.3,97.6,267.2,97.4,267z"/>
		<path d="M100.6,269.6h1.4l-0.4,1.9h0c0.3-0.6,0.8-1.1,1.3-1.5c0.6-0.4,1.2-0.6,2-0.6c0.8,0,1.5,0.2,2.1,0.7c0.5,0.5,0.9,1,1,1.6h0
			c0.2-0.4,0.5-0.8,0.8-1.1s0.8-0.6,1.3-0.8c0.5-0.2,1-0.3,1.6-0.3c0.6,0,1.2,0.1,1.6,0.4c0.5,0.3,0.8,0.6,1.1,1.1s0.4,1,0.4,1.6
			c0,0.2,0,0.4,0,0.6s-0.1,0.4-0.1,0.7l-1.5,7h-1.4l1.4-6.8c0-0.2,0.1-0.4,0.1-0.6c0-0.2,0-0.4,0-0.5c0-0.6-0.2-1.1-0.6-1.5
			c-0.4-0.4-0.9-0.6-1.6-0.6c-0.5,0-1,0.1-1.4,0.4s-0.8,0.6-1.1,1.1s-0.6,1-0.7,1.7l-1.5,7H105l1.4-6.8c0-0.2,0.1-0.4,0.1-0.6
			c0-0.2,0-0.4,0-0.5c0-0.6-0.2-1.1-0.6-1.5c-0.4-0.4-0.9-0.6-1.6-0.6c-0.5,0-0.9,0.1-1.4,0.4c-0.4,0.3-0.8,0.6-1.2,1.1
			s-0.6,1-0.7,1.6l-1.5,7h-1.4L100.6,269.6z"/>
	</g>
</g>
</svg>
